{"title":"Superbad 2007 BRRiP x264 AC3-BadMeetsEvil [PublicHash]","uid":8695475,"size":1886666119,"categoryP":"video","categoryS":"movies","magnet":"?xt=urn:btih:4b90237dec81ba71a80f3e6734a0cca2dd1c1501&amp;dn=Superbad+2007+BRRiP+x264+AC3-BadMeetsEvil+%5BPublicHash%5D&amp;tr=udp%3A%2F%2Ftracker.openbittorrent.com%3A80&amp;tr=udp%3A%2F%2Fopen.demonii.com%3A1337&amp;tr=udp%3A%2F%2Ftracker.coppersurfer.tk%3A6969&amp;tr=udp%3A%2F%2Fexodus.desync.com%3A6969","seeders":5,"leechers":3,"uploader":"R0thschild","files":3,"time":1373967101,"description":"              ***********************************************\n\n                PublicHash - Largest Bittorrent Community\n      \n                         &lt;a href=&quot; http://publichash.com/&quot; rel=&quot;nofollow&quot; target=&quot;_NEW&quot;&gt; http://publichash.com/&lt;/a&gt;\n\n          Crystal Clean files - Fast Speed! No Virus! No Fake! Enjoy!\n    \n              ***********************************************\nSuperbad 2007 BRRiP x264 AC3-BadMeetsEvil [PublicHash]\n\nSuperbad (2007)\n113 min  -  Comedy  -  17 August 2007 (USA)\nIMDB rating: 7.6\n\nTwo co-dependent high school seniors are forced to deal with separation anxiety after their plan to stage a booze-soaked party goes awry.\n\nDirector: Greg Mottola\nWriters: Seth Rogen, Evan Goldberg \n\nGallery: &lt;a href=&quot;\nhttp://imgsure.com/?g=733617&quot; rel=&quot;nofollow&quot; target=&quot;_NEW&quot;&gt;\nhttp://imgsure.com/?g=733617&lt;/a&gt;\n\nPRouDLY PReSeNTS\n\nSuperbad 2007 BRRiP x264 AC3-BadMeetsEvil\n\nSource Superbad 2007 1080p Bluray TrueHD X264 BluEvo - MANY THANKX\n\nMedia Info\nSuperbad 2007 BRRiP x264 AC3-BadMeetsEvil.mp4\nFormat: MPEG-4\nFormat profile: Base Media\nCodec ID: isom\nFile size: 1.76 GiB\nDuration: 1h 58mn\nOverall bit rate mode: Variable\nOverall bit rate: 2 120 Kbps\nEncoded date: UTC 2013-07-13 16:40:55\nTagged date: UTC 2013-07-13 16:40:55\n\nVideo\nID: 1\nFormat: AVC\nFormat/Info: Advanced Video Codec\nFormat profile: &lt;a class=&quot;__cf_email__&quot; href=&quot;/cdn-cgi/l/email-protection&quot; data-cfemail=&quot;d890b1bfb09894ecf6e9&quot;&gt;[email&amp;#160;protected]&lt;/a&gt;&lt;script cf-hash='f9e31' type=&quot;text/javascript&quot;&gt;\n/* &lt;![CDATA[ */!function(){try{var t=&quot;currentScript&quot;in document?document.currentScript:function(){for(var t=document.getElementsByTagName(&quot;script&quot;),e=t.length;e--;)if(t[e].getAttribute(&quot;cf-hash&quot;))return t[e]}();if(t&amp;&amp;t.previousSibling){var e,r,n,i,c=t.previousSibling,a=c.getAttribute(&quot;data-cfemail&quot;);if(a){for(e=&quot;&quot;,r=parseInt(a.substr(0,2),16),n=2;a.length-n;n+=2)i=parseInt(a.substr(n,2),16)^r,e+=String.fromCharCode(i);e=document.createTextNode(e),c.parentNode.replaceChild(e,c)}}}catch(u){}}();/* ]]&gt; */&lt;/script&gt;\nFormat settings, CABAC: Yes\nFormat settings, ReFrames: 3 frames\nFormat settings, GOP: M=4, N=23\nCodec ID: avc1\nCodec ID/Info: Advanced Video Coding\nDuration: 1h 58mn\nBit rate mode: Variable\nBit rate: 1 734 Kbps\nMaximum bit rate: 40.0 Mbps\nWidth: 720 pixels\nHeight: 384 pixels\nDisplay aspect ratio: 1.85:1\nFrame rate mode: Constant\nFrame rate: 23.976 fps\nColor space: YUV\nChroma subsampling: 4:2:0\nBit depth: 8 bits\nScan type: Progressive\nBits/(Pixel*Frame): 0.262\nStream size: 1.44 GiB (82%)\nTitle: Superbad 2007 BRRiP x264 AC3-BadMeetsEvil\nWriting library: x264 core 133 r2334 a3ac64b\n\nAudio\nID: 2\nFormat: AC-3\nFormat/Info: Audio Coding 3\nMode extension: CM (complete main)\nFormat settings, Endianness: Big\nCodec ID: ac-3\nDuration: 1h 58mn\nBit rate mode: Constant\nBit rate: 384 Kbps\nChannel(s): 6 channels\nChannel positions: Front: L C R, Side: L R, LFE\nSampling rate: 48.0 KHz\nBit depth: 16 bits\nCompression mode: Lossy\nStream size: 326 MiB (18%)\nTitle: 5.1\nLanguage: English\n\nIMDB: http://www.imdb.com/title/tt0829482","torrent":{"xt":"urn:btih:4b90237dec81ba71a80f3e6734a0cca2dd1c1501","amp;dn":"Superbad+2007+BRRiP+x264+AC3-BadMeetsEvil+%5BPublicHash%5D","amp;tr":["udp%3A%2F%2Ftracker.openbittorrent.com%3A80","udp%3A%2F%2Fopen.demonii.com%3A1337","udp%3A%2F%2Ftracker.coppersurfer.tk%3A6969","udp%3A%2F%2Fexodus.desync.com%3A6969"],"infoHash":"4b90237dec81ba71a80f3e6734a0cca2dd1c1501","infoHashBuffer":{"type":"Buffer","data":[75,144,35,125,236,129,186,113,168,15,62,103,52,160,204,162,221,28,21,1]},"announce":[],"urlList":[]}}